<svg xmlns="http://www.w3.org/2000/svg" viewBox="0 0 40 40">
  <defs>
    <linearGradient id="grad" x1="0%" y1="0%" x2="100%" y2="100%">
      <stop offset="0%" style="stop-color:#2563EB;stop-opacity:1" />
      <stop offset="100%" style="stop-color:#4338CA;stop-opacity:1" />
    </linearGradient>
  </defs>

  <rect width="40" height="40" rx="10" fill="url(#grad)" />

  <g transform="translate(8, 8)"> <path fill="#ffffff" d="M13.5 2c-1.355 0-2.697.092-4 .264V5.25c0 .69.56 1.25 1.25 1.25h.995c.368 0 .732-.083 1.07-.244l.974-.472c.643-.312.91-1.087.598-1.73a.587.587 0 0 0-.02-.036l-.057-.105c-.16-.279-.43-.462-.735-.517a14.722 14.722 0 0 1 1.925-.14zM8.25 7.75c-.69 0-1.25.56-1.25 1.25v12.5c0 .69.56 1.25 1.25 1.25h1.5a.75.75 0 0 0 .75-.75v-4.25a.75.75 0 0 1 .75-.75h1.5a.75.75 0 0 1 .75.75v4.25a.75.75 0 0 0 .75.75h1.5c.69 0 1.25-.56 1.25-1.25V16a6.501 6.501 0 0 0-3.86-5.937 4 4 0 1 0-5.88 0V9c0-.69-.56-1.25-1.25-1.25h-1.5zM12 12.75a2.5 2.5 0 1 1 0-5 2.5 2.5 0 0 1 0 5zM5.35 2.683a.75.75 0 0 0-.933.367l-3 6a.75.75 0 0 0 1.342.671L3.213 8.75h.037c1.12 2.013 3.01 3.501 5.25 4.052V9a5.5 5.5 0 0 1 7.95-4.923c.11.057.22.116.328.177.13.073.258.15.385.23.125.078.248.16.368.245.118.084.233.171.346.262.11.088.218.18.323.274.103.092.203.188.3.287.096.097.189.197.28.299.088.1.174.203.257.309.082.104.16.21.237.319.074.108.146.218.214.33.067.11.132.223.194.339.06.112.117.226.171.342.053.114.103.23.151.348.046.114.089.23.13.348.04.113.077.228.112.345.033.113.064.228.092.344.028.112.053.225.076.339.022.11.042.222.06.335.017.107.032.214.045.322.013.105.023.211.032.318.008.103.015.206.02.31.004.1.007.2.008.301a.75.75 0 0 0 1.5-.007v-.027c0-.109-.004-.219-.009-.328a13.662 13.662 0 0 0-.023-.34 14.16 14.16 0 0 0-.036-.35 13.143 13.143 0 0 0-.05-.361 13.594 13.594 0 0 0-.066-.372 13.787 13.787 0 0 0-.083-.373 13.57 13.57 0 0 0-.1-.381c-.038-.129-.077-.257-.12-.384a14.19 14.19 0 0 0-.143-.39 14.358 14.358 0 0 0-.165-.393c-.06-.133-.123-.265-.188-.395a13.58 13.58 0 0 0-.213-.4c-.078-.135-.158-.27-.24-.4a13.93 13.93 0 0 0-.264-.397c-.095-.134-.192-.267-.292-.396a14.147 14.147 0 0 0-.322-.4c-.116-.135-.235-.269-.356-.398a13.436 13.436 0 0 0-.384-.388c-.137-.129-.276-.255-.419-.377a13.659 13.659 0 0 0-.427-.355c-.152-.119-.306-.235-.464-.346a13.77 13.77 0 0 0-.46-.31c-.165-.106-.333-.208-.504-.305a13.945 13.945 0 0 0-.476-.256c-.173-.09-.349-.174-.527-.254a13.56 13.56 0 0 0-.473-.199 13.553 13.553 0 0 0-.533-.189c-.166-.054-.333-.105-.502-.151a13.922 13.922 0 0 0-.503-.127 13.789 13.789 0 0 0-.521-.1 13.815 13.815 0 0 0-.502-.065 15.05 15.05 0 0 0-.524-.042A15.206 15.206 0 0 0 13.5 2z" />
  </g>
</svg>
